<?xml version="1.0" standalone="no"?>
<!DOCTYPE svg PUBLIC "-//W3C//DTD SVG 20010904//EN"
 "http://www.w3.org/TR/2001/REC-SVG-20010904/DTD/svg10.dtd">
<svg version="1.0" xmlns="http://www.w3.org/2000/svg"
 width="540.000000pt" height="540.000000pt" viewBox="0 0 540.000000 540.000000"
 preserveAspectRatio="xMidYMid meet">
<metadata>
Created by potrace 1.11, written by Peter Selinger 2001-2013
</metadata>
<g transform="translate(0.000000,540.000000) scale(0.100000,-0.100000)"
fill="#000000" stroke="none">
<path d="M1170 4815 l0 -585 -585 0 -585 0 0 -453 0 -453 588 1 587 0 -1 -615
c-1 -338 -2 -619 -3 -625 -1 -7 -203 -10 -586 -9 l-585 0 0 -451 0 -451 572 1
c315 0 580 -1 588 -3 13 -3 15 -76 14 -588 l0 -584 451 0 451 0 -1 585 c0 383
3 585 10 586 25 3 1229 -2 1234 -5 3 -2 6 -266 5 -585 l0 -581 453 0 453 0 0
585 0 585 585 0 585 0 -2 452 -3 453 -583 0 c-320 0 -582 2 -583 5 -1 3 -2
284 -2 625 l-2 620 585 0 585 0 3 451 2 450 -581 0 c-412 0 -582 3 -587 11 -4
6 -7 270 -6 587 l0 576 -450 -2 -451 -3 0 -585 0 -585 -615 2 c-338 2 -619 5
-625 7 -7 2 -10 206 -9 585 l0 581 -453 0 -453 0 0 -585z m2145 -1494 c7 -1 9
-213 9 -618 -1 -340 -2 -620 -3 -623 -1 -4 -1221 -5 -1241 -1 -3 1 -5 278 -5
617 1 442 4 617 12 622 8 5 1180 8 1228 3z"/>
</g>
</svg>
